{
    "asset" : {
        "generator" : "Khronos glTF Blender I/O v1.7.33",
        "version" : "2.0"
    },
    "scene" : 0,
    "scenes" : [
        {
            "name" : "Scene",
            "nodes" : [
                0
            ]
        }
    ],
    "nodes" : [
        {
            "mesh" : 0,
            "name" : "Mug_Rotated",
            "rotation" : [
                0.10610035806894302,
                -0.022496845573186874,
                -0.20619863271713257,
                0.9724807143211365
            ]
        }
    ],
    "materials" : [
        {
            "doubleSided" : true,
            "name" : "MugWhite",
            "pbrMetallicRoughness" : {
                "baseColorFactor" : [
                    0.800000011920929,
                    0.800000011920929,
                    0.800000011920929,
                    1
                ],
                "metallicFactor" : 0,
                "roughnessFactor" : 0.5
            }
        },
        {
            "doubleSided" : true,
            "name" : "MugStoneware",
            "pbrMetallicRoughness" : {
                "baseColorFactor" : [
                    0.303197979927063,
                    0.21899168193340302,
                    0.06482447683811188,
                    1
                ],
                "metallicFactor" : 0,
                "roughnessFactor" : 0.5
            }
        }
    ],
    "meshes" : [
        {
            "name" : "Cylinder.001",
            "primitives" : [
                {
                    "attributes" : {
                        "POSITION" : 0,
                        "NORMAL" : 1,
                        "TEXCOORD_0" : 2
                    },
                    "indices" : 3,
                    "material" : 0
                },
                {
                    "attributes" : {
                        "POSITION" : 4,
                        "NORMAL" : 5,
                        "TEXCOORD_0" : 6
                    },
                    "indices" : 7,
                    "material" : 1
                }
            ]
        }
    ],
    "accessors" : [
        {
            "bufferView" : 0,
            "componentType" : 5126,
            "count" : 1713,
            "max" : [
                0.0508531890809536,
                0.04494773596525192,
                0.05085321143269539
            ],
            "min" : [
                -0.08661530911922455,
                -0.045183341950178146,
                -0.0508531779050827
            ],
            "type" : "VEC3"
        },
        {
            "bufferView" : 1,
            "componentType" : 5126,
            "count" : 1713,
            "type" : "VEC3"
        },
        {
            "bufferView" : 2,
            "componentType" : 5126,
            "count" : 1713,
            "type" : "VEC2"
        },
        {
            "bufferView" : 3,
            "componentType" : 5123,
            "count" : 7914,
            "type" : "SCALAR"
        },
        {
            "bufferView" : 4,
            "componentType" : 5126,
            "count" : 728,
            "max" : [
                0.050680048763751984,
                0.045192278921604156,
                0.05068007856607437
            ],
            "min" : [
                -0.050680067390203476,
                -0.06403433531522751,
                -0.05068004131317139
            ],
            "type" : "VEC3"
        },
        {
            "bufferView" : 5,
            "componentType" : 5126,
            "count" : 728,
            "type" : "VEC3"
        },
        {
            "bufferView" : 6,
            "componentType" : 5126,
            "count" : 728,
            "type" : "VEC2"
        },
        {
            "bufferView" : 7,
            "componentType" : 5123,
            "count" : 3264,
            "type" : "SCALAR"
        }
    ],
    "bufferViews" : [
        {
            "buffer" : 0,
            "byteLength" : 20556,
            "byteOffset" : 0
        },
        {
            "buffer" : 0,
            "byteLength" : 20556,
            "byteOffset" : 20556
        },
        {
            "buffer" : 0,
            "byteLength" : 13704,
            "byteOffset" : 41112
        },
        {
            "buffer" : 0,
            "byteLength" : 15828,
            "byteOffset" : 54816
        },
        {
            "buffer" : 0,
            "byteLength" : 8736,
            "byteOffset" : 70644
        },
        {
            "buffer" : 0,
            "byteLength" : 8736,
            "byteOffset" : 79380
        },
        {
            "buffer" : 0,
            "byteLength" : 5824,
            "byteOffset" : 88116
        },
        {
            "buffer" : 0,
            "byteLength" : 6528,
            "byteOffset" : 93940
        }
    ],
    "buffers" : [
        {
            "byteLength" : 100468,
            "uri" : "data:application/octet-stream;base64,"
        }
    ]
}
